<?xml version="1.0" encoding="utf-8"?>
<!-- Svg Vector Icons : http://www.onlinewebfonts.com/icon -->
<!DOCTYPE svg PUBLIC "-//W3C//DTD SVG 1.1//EN" "http://www.w3.org/Graphics/SVG/1.1/DTD/svg11.dtd">
<svg version="1.1" xmlns="http://www.w3.org/2000/svg" xmlns:xlink="http://www.w3.org/1999/xlink" x="0px" y="0px" viewBox="0 0 1000 1000" enable-background="new 0 0 1000 1000" xml:space="preserve">
<metadata> Svg Vector Icons : http://www.onlinewebfonts.com/icon </metadata>
<g><g transform="translate(0.000000,512.000000) scale(0.100000,-0.100000)"><path d="M4549.8,5002c-955.5-97.7-1813.3-440.4-2575.4-1028.2c-208.7-160.8-666.3-618.5-827.2-827.2C308.5,2057-43.8,730.1,153.5-602.6c76.6-503.6,216.4-951.7,451.9-1430.3c461.5-940.2,1202.5-1700.3,2135-2190.5c1558.6-815.7,3458.1-721.9,4930.6,243.2c750.6,492.1,1334.6,1150.8,1723.3,1947.3c224,455.7,360,877,438.5,1349.9c225.9,1359.5-120.6,2713.3-980.4,3829.6c-287.2,373.4-827.2,857.8-1267.6,1137.4c-189.6,120.6-672.1,356.2-901.8,440.4c-266.2,97.7-664.4,199.1-959.3,243.2C5428.7,5011.5,4815.9,5030.7,4549.8,5002z M5765.7,4601.8c1688.8-300.6,3052.2-1493.5,3569.1-3121.1c141.7-446.1,203-861.7,203-1376.7c0-1187.2-448.1-2284.3-1290.6-3155.6l-214.4-222.1l-850.2,427c-469.1,233.6-878.9,446.1-911.4,471c-118.7,88.1-141.7,172.3-141.7,518.9v308.3l143.6,212.5c153.2,225.9,271.9,451.9,371.5,700.8c53.6,134,72.8,160.8,149.3,208.7c105.3,67,204.9,199.1,245.1,331.3c26.8,82.3,30.6,174.2,24.9,555.3c-5.7,436.6-7.6,459.6-51.7,541.9c-24.9,47.9-55.5,99.6-68.9,114.9c-19.2,23-26.8,174.2-32.6,651c-7.6,587.8-9.6,630-51.7,756.3c-164.7,503.6-547.6,844.4-1102.9,982.3c-250.8,63.2-411.7,80.4-756.3,80.4c-342.7,0-505.5-17.2-746.8-76.6c-564.9-141.7-945.9-480.6-1112.5-986.1c-42.1-126.4-44-168.5-51.7-756.3c-5.8-476.8-13.4-628-32.6-651c-13.4-15.3-44-67-68.9-114.9c-44-84.2-46-97.7-46-584c0-480.6,1.9-501.7,44-587.8c24.9-47.9,76.6-126.4,114.9-172.3c51.7-57.4,88.1-132.1,126.4-254.7c68.9-222.1,247-587.8,383-790.8l107.2-158.9v-279.6c0-323.6-19.1-407.8-114.9-503.6c-42.1-40.2-344.7-216.4-748.7-436.6c-373.4-203-727.6-396.4-788.9-430.8l-113-61.3l-206.8,214.5c-697,721.9-1124,1608.4-1254.2,2596.4c-38.3,293-38.3,844.4,0,1137.4c136,1035.9,614.6,1991.4,1351.8,2696c721.9,689.3,1577.8,1102.9,2573.5,1244.6C4716.4,4672.6,5457.4,4657.3,5765.7,4601.8z"/></g></g>
</svg>