<?xml version="1.0" encoding="UTF-8" standalone="no"?>
<!DOCTYPE svg PUBLIC "-//W3C//DTD SVG 1.1//EN" "http://www.w3.org/Graphics/SVG/1.1/DTD/svg11.dtd">
<svg version="1.1" xmlns="http://www.w3.org/2000/svg" xmlns:xlink="http://www.w3.org/1999/xlink" preserveAspectRatio="xMidYMid meet" viewBox="0 0 640 640" width="640" height="640"><defs><path d="M386.35 226L553.33 251.53L432.5 375.36L461.02 550.24L311.66 467.67L162.31 550.24L190.84 375.36L70 251.53L237 226L311.66 66.9L386.35 226Z" id="a1wVuqDzM6"></path><path d="M269.93 268.93C271.47 270.46 271.46 272.95 269.93 274.48C261.47 282.94 238.85 305.56 230.39 314.02C228.86 315.55 226.38 315.55 224.85 314.02C223.62 312.79 222.71 311.88 221.48 310.65C219.95 309.12 219.95 306.64 221.48 305.11C229.94 296.65 252.56 274.03 261.03 265.57C262.56 264.04 265.04 264.04 266.57 265.57C267.8 266.8 268.71 267.71 269.93 268.93Z" id="hgRc9H7k8"></path><path d="M226.97 265.54C227.57 264.5 228.97 264.28 229.86 265.09C233.38 268.31 242.18 276.34 256.27 289.2C264.57 296.78 269.77 301.52 271.84 303.42C272.85 304.33 273.08 305.83 272.4 307.01C271.37 308.79 270.1 311 269.23 312.51C268.22 314.25 265.86 314.61 264.37 313.26C255.87 305.49 233.24 284.84 224.73 277.07C223.04 275.53 222.65 273.02 223.8 271.03C224.66 269.53 225.94 267.32 226.97 265.54Z" id="bnjaoWzIl"></path><path d="M398.27 268.93C399.8 270.46 399.8 272.95 398.27 274.48C389.8 282.94 367.19 305.56 358.72 314.02C357.19 315.55 354.71 315.55 353.18 314.02C351.95 312.79 351.04 311.88 349.81 310.65C348.28 309.12 348.28 306.64 349.81 305.11C358.28 296.65 380.9 274.03 389.36 265.57C390.89 264.04 393.37 264.04 394.9 265.57C396.13 266.8 397.04 267.71 398.27 268.93Z" id="ch9GPqo4b"></path><path d="M355.3 265.54C355.9 264.5 357.31 264.28 358.19 265.09C361.71 268.31 370.52 276.34 384.6 289.2C392.91 296.78 398.1 301.52 400.18 303.42C401.18 304.33 401.41 305.83 400.73 307.01C399.71 308.79 398.43 311 397.56 312.51C396.56 314.25 394.19 314.61 392.71 313.26C384.2 305.49 361.57 284.84 353.06 277.07C351.37 275.53 350.99 273.02 352.13 271.03C353 269.53 354.27 267.32 355.3 265.54Z" id="cbCSg5eIv"></path><path d="M366.26 374.53L367.72 374.8L369.16 375.13L370.58 375.51L371.98 375.94L373.35 376.43L374.7 376.97L376.02 377.56L377.31 378.19L378.57 378.88L379.8 379.61L381.01 380.39L382.17 381.21L383.31 382.08L384.41 382.99L385.47 383.94L386.5 384.93L387.49 385.95L388.44 387.02L389.35 388.12L390.21 389.25L391.04 390.42L391.82 391.63L392.55 392.86L393.24 394.12L393.87 395.41L394.46 396.73L395 398.08L395.49 399.45L395.92 400.85L396.3 402.26L396.63 403.7L396.89 405.17L397.11 406.65L397.26 408.14L397.35 409.66L397.38 411.19L397.36 412.01L397.31 412.83L397.23 413.64L397.12 414.43L396.97 415.22L396.8 416L396.6 416.76L396.36 417.51L396.1 418.25L395.81 418.98L395.49 419.69L395.15 420.38L394.78 421.06L394.38 421.73L393.97 422.37L393.52 423L393.06 423.61L392.57 424.21L392.06 424.78L391.52 425.33L390.97 425.87L390.4 426.38L389.8 426.87L389.19 427.33L388.56 427.77L387.92 428.19L387.25 428.59L386.57 428.96L385.88 429.3L385.17 429.62L384.44 429.91L383.7 430.17L382.95 430.4L382.19 430.61L381.41 430.78L380.63 430.93L379.83 431.04L379.02 431.12L378.21 431.17L377.38 431.19L262.62 431.19L261.79 431.17L260.98 431.12L260.17 431.04L259.37 430.93L258.59 430.78L257.81 430.61L257.05 430.4L256.3 430.17L255.56 429.91L254.83 429.62L254.12 429.3L253.43 428.96L252.75 428.59L252.08 428.19L251.44 427.77L250.81 427.33L250.2 426.87L249.6 426.38L249.03 425.87L248.48 425.33L247.94 424.78L247.43 424.21L246.94 423.61L246.48 423L246.03 422.37L245.62 421.73L245.22 421.06L244.85 420.38L244.51 419.69L244.19 418.98L243.9 418.25L243.64 417.51L243.4 416.76L243.2 416L243.03 415.22L242.88 414.43L242.77 413.64L242.69 412.83L242.64 412.01L242.62 411.19L242.65 409.66L242.74 408.14L242.89 406.65L243.11 405.17L243.37 403.7L243.7 402.26L244.08 400.85L244.51 399.45L245 398.08L245.54 396.73L246.13 395.41L246.76 394.12L247.45 392.86L248.18 391.63L248.96 390.42L249.79 389.25L250.65 388.12L251.56 387.02L252.51 385.95L253.5 384.93L254.53 383.94L255.59 382.99L256.69 382.08L257.83 381.21L258.99 380.39L260.2 379.61L261.43 378.88L262.69 378.19L263.98 377.56L265.3 376.97L266.65 376.43L268.02 375.94L269.42 375.51L270.84 375.13L272.28 374.8L273.74 374.53L275.22 374.32L276.72 374.17L278.23 374.08L279.76 374.05L360.24 374.05L361.77 374.08L363.28 374.17L364.78 374.32L364.78 374.32L366.26 374.53ZM363.54 377.15L362.71 377.2L361.85 377.27L360.97 377.34L360.07 377.42L359.15 377.5L358.21 377.59L357.24 377.68L356.26 377.77L355.26 377.86L354.24 377.96L353.2 378.05L352.5 378.1L351.78 378.16L351.07 378.2L350.34 378.24L349.6 378.28L348.86 378.31L348.11 378.33L347.36 378.36L346.59 378.37L345.82 378.39L345.04 378.4L344.26 378.4L343.47 378.4L342.67 378.4L341.87 378.4L341.05 378.39L340.24 378.39L339.41 378.38L338.59 378.36L337.75 378.35L336.91 378.33L336.06 378.32L335.21 378.3L334.35 378.28L333.49 378.26L332.62 378.24L331.75 378.22L330.87 378.2L329.99 378.18L329.1 378.16L328.21 378.14L327.32 378.12L326.42 378.11L325.51 378.09L324.6 378.08L323.69 378.07L322.77 378.06L321.85 378.05L320.93 378.05L320 378.05L318.91 378.05L317.83 378.05L316.77 378.06L315.73 378.06L314.7 378.07L313.69 378.08L312.7 378.09L311.72 378.1L310.76 378.11L309.81 378.12L308.87 378.14L307.95 378.15L307.04 378.16L306.14 378.18L305.26 378.19L304.38 378.2L303.52 378.22L302.66 378.23L301.82 378.24L300.98 378.25L300.16 378.26L299.34 378.27L298.53 378.27L297.73 378.28L296.94 378.28L296.15 378.29L295.37 378.29L294.59 378.28L293.82 378.28L293.05 378.27L292.29 378.27L291.53 378.25L290.77 378.24L290.02 378.22L289.27 378.2L288.52 378.18L287.77 378.15L287.02 378.12L286.27 378.09L285.53 378.05L284.7 378L283.88 377.95L283.06 377.91L282.25 377.86L281.44 377.81L280.64 377.77L279.84 377.73L279.06 377.69L278.28 377.66L277.52 377.63L276.77 377.61L276.03 377.6L275.3 377.6L274.58 377.61L273.89 377.63L273.2 377.66L272.54 377.71L271.89 377.77L271.26 377.84L270.65 377.93L270.06 378.04L269.5 378.16L268.95 378.3L268.43 378.47L267.94 378.65L267.47 378.86L267.02 379.09L266.6 379.34L266.21 379.62L265.85 379.92L265.52 380.25L265.22 380.61L264.96 381L264.72 381.42L264.52 381.86L264.35 382.34L264.22 382.85L264.12 383.4L264.07 383.98L264.05 384.6L264.09 385.8L264.23 386.99L264.46 388.16L264.78 389.32L265.19 390.47L265.68 391.6L266.25 392.71L266.91 393.81L267.65 394.89L268.46 395.94L269.35 396.98L270.32 397.99L271.35 398.99L272.46 399.95L273.64 400.9L274.88 401.82L276.19 402.71L277.57 403.57L279 404.41L280.49 405.22L282.05 405.99L283.66 406.74L285.32 407.45L287.04 408.13L288.8 408.78L290.62 409.39L292.48 409.97L294.39 410.5L296.34 411.01L298.34 411.47L300.37 411.89L302.44 412.27L304.55 412.61L306.69 412.91L308.87 413.17L311.07 413.38L313.31 413.55L315.57 413.67L317.86 413.74L320.17 413.76L322.49 413.74L324.77 413.67L327.04 413.55L329.27 413.38L331.48 413.17L333.65 412.91L335.8 412.61L337.91 412.27L339.98 411.89L342.01 411.47L344.01 411.01L345.96 410.5L347.87 409.97L349.73 409.39L351.54 408.78L353.31 408.13L355.03 407.45L356.69 406.74L358.3 405.99L359.85 405.22L361.35 404.41L362.78 403.57L364.15 402.71L365.46 401.82L366.71 400.9L367.89 399.95L368.99 398.99L370.03 397.99L371 396.98L371.89 395.94L372.7 394.89L373.44 393.81L374.09 392.71L374.67 391.6L375.16 390.47L375.56 389.32L375.88 388.16L376.11 386.99L376.25 385.8L376.3 384.6L376.28 383.89L376.23 383.23L376.15 382.61L376.03 382.03L375.88 381.49L375.7 380.99L375.48 380.52L375.24 380.09L374.96 379.69L374.66 379.33L374.32 379L373.95 378.69L373.56 378.42L373.13 378.18L372.68 377.96L372.2 377.77L371.69 377.61L371.15 377.46L370.58 377.35L369.99 377.25L369.38 377.17L368.73 377.11L368.06 377.07L367.37 377.05L366.65 377.04L365.91 377.05L365.15 377.07L364.36 377.11L364.36 377.11L363.54 377.15Z" id="cROR9Hs80"></path></defs><g><g><g><g><use xlink:href="#a1wVuqDzM6" opacity="1" fill-opacity="0"  stroke-width="10" stroke-opacity="1"></use></g></g><g><use xlink:href="#hgRc9H7k8" opacity="1"  fill-opacity="1"></use></g><g><use xlink:href="#bnjaoWzIl" opacity="1"  fill-opacity="1"></use></g><g><use xlink:href="#ch9GPqo4b" opacity="1"  fill-opacity="1"></use></g><g><use xlink:href="#cbCSg5eIv" opacity="1"  fill-opacity="1"></use></g><g><use xlink:href="#cROR9Hs80" opacity="1"  fill-opacity="1"></use></g></g></g></svg>