<?xml version="1.0" encoding="UTF-8" standalone="no"?>
<!DOCTYPE svg PUBLIC "-//W3C//DTD SVG 1.1//EN" "http://www.w3.org/Graphics/SVG/1.1/DTD/svg11.dtd">
<svg version="1.1" xmlns="http://www.w3.org/2000/svg" xmlns:xlink="http://www.w3.org/1999/xlink" preserveAspectRatio="xMidYMid meet" viewBox="84.57143170073203 69.19144487987907 448.88960147648544 526.9064187858119" width="444.89" height="522.91"><defs><path d="M311.95 145.1C281.79 145.1 254.52 156.6 235.15 177.48C215.57 198.59 206.03 227.28 208.27 258.26C212.71 319.38 259.22 369.1 311.95 369.1C364.68 369.1 411.11 319.39 415.62 258.28C417.89 227.58 408.29 198.95 388.59 177.68C369.13 156.67 341.95 145.1 311.95 145.1Z" id="cj2Ipcq8j"></path><path d="M135.95 593.1C126.62 593.22 117.73 589.13 111.75 581.97C105.25 574.2 102.63 563.59 104.57 552.86C113.01 506.04 139.35 466.71 180.75 439.1C217.53 414.59 264.12 401.1 311.95 401.1C359.78 401.1 406.37 414.6 443.15 439.1C484.55 466.7 510.89 506.03 519.33 552.85C521.27 563.58 518.65 574.19 512.15 581.96C506.17 589.12 497.28 593.21 487.95 593.1C417.55 593.1 171.15 593.1 135.95 593.1Z" id="aBuLLmEH"></path><path d="M215.44 257.88C238.44 264.65 259.76 267.34 276.38 270.72C289.99 273.48 305.79 277.72 317.2 276.56C327.29 275.54 280.27 282.94 350.82 271.28C397.86 262.14 457.74 243.16 530.46 214.32L425.36 200.03L353.93 71.47L319.24 86.77C315.47 81.16 309.36 77.48 300.9 75.75C296.28 74.81 292.64 72.53 287.11 71.47C284.2 70.9 280.76 68.9 276.38 71.47C234.55 95.96 196.79 201.06 188.63 200.03C183.19 199.35 148.84 204.12 85.57 214.32C136.54 232.88 179.83 247.4 215.44 257.88Z" id="bXyBGTc0k"></path></defs><g><g><use xlink:href="#cj2Ipcq8j" opacity="1"  fill-opacity="1"></use><g><use xlink:href="#cj2Ipcq8j" opacity="1" fill-opacity="0"  stroke-width="1" stroke-opacity="0"></use></g></g><g><use xlink:href="#aBuLLmEH" opacity="1"  fill-opacity="1"></use><g><use xlink:href="#aBuLLmEH" opacity="1" fill-opacity="0"  stroke-width="1" stroke-opacity="0"></use></g></g><g><use xlink:href="#bXyBGTc0k" opacity="1" fill-opacity="1"></use><g><use xlink:href="#bXyBGTc0k" opacity="1" fill-opacity="0"  stroke-width="1" stroke-opacity="1"></use></g></g></g></svg>