<svg xmlns="http://www.w3.org/2000/svg" width="153" height="147" viewBox="0 0 153 147"><g><g><path d="M74.595 0C80.17.136 82.07 1.757 86.29 2.924c3.829 6.517 15.75 33.971 21.442 36.062 4.826 3.274 31.701 5.93 38.986 7.797 1.637 2.51 4.949 5.844 5.848 8.772 3.607 11.744-22.417 33.171-28.265 38.986.32 15.967 12.598 43.881-3.898 49.707-3.634 2.861-10.547 2.082-14.62 0-9.92-5.07-18.305-13.825-32.164-14.62-3.151 2.972-26.713 15.418-31.189 16.57l-9.746-.975c-2.403-3.04-5.338-3.61-6.823-7.797-7.68-10.168 5.572-29.396 3.899-40.936C27.493 80.847 1.049 78.544.521 56.53c1.764-2.21 2.073-5.574 3.9-7.797 1.32-1.61 4.352-2.37 5.847-3.899 12.409-.278 26.115-3.222 37.037-5.848 7.66-12.747 13.22-27.767 23.391-38.011C72.965.785 73.45.787 74.595 0zm-.975 5.848l-5.848 4.873C61.49 19.875 59.317 39.988 48.28 43.86c-9.086 6.484-34.962.462-39.96 10.721-1.835 1.987-1.95 3.739-1.95 7.798 3.193 3.224 5.139 7.968 8.772 10.72 6.471 4.903 17.13 11.937 19.493 20.468 3.72 13.434-6.471 28.64-3.898 42.885 15.479 9.914 28.759-9.043 42.884-12.67 11.05-2.837 28.529 14.04 37.037 16.569 7.755 2.305 12.034-3.212 12.67-8.772 3.18-9.435-8.109-24.944-4.873-37.037 1.945-7.268 22.227-25.538 28.265-31.189l-.975-9.746c-10.83-6.216-33.513-3.2-43.859-10.721-8.497-6.178-11.151-31.104-20.468-35.088-1.986-1.835-3.738-1.95-7.797-1.95zM45.355 58.479c4.148 1.455 4.648 4.337 8.772 5.848 1.667-2.67 3.522-4.73 6.823-5.848v.975c1.582 1.315 1.093.623 1.95 2.924-2.67 1.667-4.73 3.522-5.849 6.822 2.992 1.842 5.084 3.56 5.848 7.797-1.477.522-1.65.658-3.898.975-1.667-2.67-3.522-4.73-6.823-5.848-1.667 2.67-3.522 4.73-6.823 5.848-.937-1.721-1.225-1.638-1.949-3.899 2.67-1.667 4.73-3.521 5.848-6.822-4.436-2.562-5.918-4.58-3.899-8.772zm46.784 0c4.147 1.455 4.647 4.337 8.772 5.848 1.548-2.7 4.329-5.929 6.822-4.873 2.478 1.418 1.1-.212 1.95 2.924-1.518 1.339-6.082 6.08-4.874 6.822 2.041 3.027 3.99 3.331 4.873 7.797-1.477.522-1.65.658-3.898.975l-4.873-5.848h-.975v.975l-5.848 4.873c-1.71-.615-.947-.188-1.95-.975l-1.949-.974.975-2.924c2.445-1.54 3.836-2.788 4.873-5.848-4.435-2.562-5.917-4.58-3.898-8.772zM69.722 92.592c6.026-.071 11.804.384 16.569.974 3.715 5.47 6.839 6.589 6.822 16.57-6.666 3.485-21.336 2.068-31.189 1.949-1.404-2.602-1.943-4.114-1.949-8.772 1.077-1.349 1.456-2.8 1.95-4.873 2.418-1.512 5.747-3.81 7.797-5.848zm2.924 2.924c-2.928 2.063-7.175 2.198-5.848 5.848 1.09 2.8.17 1.795 2.924 2.924 3.273 2.476 10.543 2.4 13.645 0 3.279-1.093 3.23-1.105 3.898-4.874l-2.924-1.949c-2.599-2.08-6.778-2.066-11.695-1.95z"/></g></g></svg>