<svg xmlns="http://www.w3.org/2000/svg" width="154" height="149" viewBox="0 0 154 149"><g><g><path d="M74.385.521c3.711.004 6.77.38 8.863 1.97 13.82 5.276 13.842 36.72 28.56 38.409 4.333 2.677 29.254 5.293 35.455 6.894 1.527 2.444 3.849 5.807 5.909 7.879-.043 17.938-12.646 24.417-21.667 33.484l-5.909 4.924c-2.873 5.33.769 14.754 1.97 19.697 2.72 11.198 2.32 19.376 0 28.56-22.87 14.941-30.827-9.883-54.166-10.833-3.51 3.394-30.526 18.537-37.424 16.743-6.101-1.588-8.014-6.088-11.818-9.849.036-10.66 7.053-37.165 3.939-42.348-2.891-8.262-17.553-18.166-23.636-24.621-1.598-1.695-2.306-4.255-3.94-5.91v-9.847c2.16-2.226 3.326-6.145 5.91-7.88 6.275-4.212 29.977-6.251 39.393-6.893 2.626-4.136 6.554-8.167 8.864-12.803 3.522-7.07 4.525-14.373 8.863-20.682 2.436-3.541 7.454-4.25 10.834-6.894zm-.985 5.91c-8.436 9.04-15.409 32.926-23.636 38.408C34.6 54.943 5.077 39.953 6.43 65.521c10.598 6.994 18.404 18.934 27.575 27.575 1.035 15.45-6.365 32.068-2.954 46.288 3.571 1.704 5.174 2.827 10.833 2.955 4.085-3.482 31.098-18.686 38.409-16.743 13.253 3.524 21.258 16.027 37.424 16.743 1.16-1.131 3.973-1.704 4.924-2.955 7.248-9.535-7.187-33.736-2.955-45.303 5.169-14.125 27.133-18.108 28.56-35.454-1.914-2.287-2.369-4.178-4.924-5.909-9.316-7.042-29.599-1.373-39.393-7.879C93.684 38.034 91.4 11.535 80.294 7.415 78.768 6.382 76.27 6.4 73.4 6.431zM51.733 61.58c3.452.399 4.838 1.239 7.879 1.97 2.138 3.346 4.151 4.8 4.924 9.849-.792 1.005-.35.27-.985 1.97h-3.94c-.93-5.914-1.58-8.002-8.863-7.88-1.68 3.058-2.708 6.943-6.894 7.88-.642-1.847-.937-3.854-.984-6.895 2.83-2.6 5.764-4.35 8.863-6.893zm47.273 0c3.451.399 4.837 1.239 7.878 1.97 2.045 3.254 3.836 5.231 4.924 9.849-2.059 1.104-1.804 1.412-4.924 1.97-1.036-3.12-1.01-5.422-3.94-6.895-2.31-1.52-4.215-.577-6.893 0-.668 4.16-.534 5.998-4.924 6.894-.947-1.739-1.238-1.655-1.97-3.939 1.883-2.343 2.438-6.174 4.924-7.879 1.56-1.069 3.6-.9 4.925-1.97zM71.43 93.097c5.547-.21 11.686-.337 14.773 1.97 4.187 1.148 7.067 3.155 7.878 7.879h-.984v.985c-4.554-1.876-11.929-6.308-18.712-4.924-4.443.906-10.852 5.047-13.788 3.939-.74-1.057-.592-.931-.985-2.955 3.31-2.007 8.597-4.294 11.818-6.894z"/></g></g></svg>