<svg xmlns="http://www.w3.org/2000/svg" width="153" height="147" viewBox="0 0 153 147"><g><g><path d="M74.656.76c3.222.109 5.929.527 7.804 1.952 13.868 4.86 13.728 32.643 25.362 37.067 10.901 7.132 37.17-.359 41.945 12.681 2.38 2.513 2.917 5.725 2.926 10.73-1.514 1.907-1.473 4.675-2.926 6.828-4.377 6.487-18.994 18.45-25.362 24.387.032 17.22 6.29 30.632 2.926 45.847-2.651 1.762-3.456 3.684-6.828 4.877-3.67 2.893-10.516 2.037-14.632 0-9.95-4.925-18.503-13.793-32.19-14.632-4.019 3.884-10.39 5.095-15.607 7.804-10.416 5.407-28.67 17.196-34.142-2.927-3.164-11.638 9.63-31.283 3.902-40.97C22.242 79.02 1.167 78.715.521 57.338c1.44-1.766 2.287-4.292 2.927-6.828 10.994-6.315 29.42-7.563 43.896-10.73 7.32-13.264 13.163-27.736 23.41-38.043 2.271-.19 2.757-.188 3.902-.975zm-.975 5.853c-1.187 1.231-3.849 1.628-4.877 2.927-6.845 8.642-9.89 31.394-20.485 35.116-6.29 4.66-30.25 5.584-39.018 7.804-1.786 3.738-2.878 5.652-2.927 11.706 6.572 6.05 25.965 22.04 28.289 30.239 3.274 11.554-6.425 28.935-3.902 42.92 15.527 9.828 28.686-9.041 42.92-12.68 18.207-4.656 31.25 28.038 49.748 10.73-.107-11.618-7.436-32.064-4.877-40.97 2.396-8.34 21.645-24.05 28.288-30.24.03-5.246-.98-7.096-1.95-10.73-11.077-4.94-29.54-5.857-41.945-8.779C99.77 39.448 84.798 9.91 81.485 8.564c-1.988-1.836-3.742-1.95-7.804-1.95zM50.27 61.24c4.902.035 6.265 1.019 9.755 1.951 2.09 3.525 3.642 4.936 3.901 10.73-1.478.523-1.651.659-3.901.976-1.828-5.537-2.07-7.866-9.755-7.804-1.667 3.252-2.473 6.86-6.828 7.804-.585-1.683-.869-3.075-.976-5.853a525.644 525.644 0 0 1 7.804-7.804zm46.822 0c4.902.035 6.265 1.019 9.755 1.951 2.09 3.525 3.642 4.936 3.901 10.73-1.478.523-1.651.659-3.901.976-1.883-5.311-2.17-7.855-9.755-7.804-1.665 3.028-2.682 6.876-6.828 7.804-.585-1.683-.869-3.075-.976-5.853a525.597 525.597 0 0 1 7.804-7.804zM74.656 94.405c6.054.265 14.878 1.031 19.51 2.926-.616 1.711-.188.948-.976 1.951-7.033 4.699-24.247 1.348-33.165.976l-.976-2.927h.976v-.975c3.168-.257 12.12-.286 14.631-1.951z"/></g></g></svg>