<svg xmlns="http://www.w3.org/2000/svg" width="153" height="148" viewBox="0 0 153 148"><g><g><path d="M73.632.76c5.615.138 7.53 1.77 11.78 2.946 4.052 6.673 9.364 14.177 12.763 21.599 1.774 3.873 1.718 7.204 3.927 10.799 1.659 2.7 4.61 4.475 8.836 4.909 4.364 2.696 29.082 5.27 35.343 6.872 3.71 5.539 5.998 7.395 5.89 17.671-9.668 10.002-18.312 20.939-28.47 30.435.196 10.047 8.606 34.645 3.927 42.215-.99 3.555-2.425 5.676-5.89 6.872-10.765 10.06-34.69-13.066-49.088-13.744-3.669 3.533-9.185 4.118-13.745 6.872-9.426 5.695-28.917 17.29-35.343 0-4.434-11.93 9.52-33.716 3.927-44.179L21.6 89.12C12.687 80.16-.111 73.557 0 55.739c2.153-2.219 3.315-6.125 5.89-7.854 6.257-4.2 29.884-6.232 39.27-6.872 7.904-12.69 14.389-28.677 24.544-39.27 2.286-.192 2.775-.19 3.928-.982zm-.982 5.891c-8.313 8.98-15.446 32.892-23.562 38.289-10.889 7.24-34.796.22-42.216 10.799-4.894 6.593 1.237 11.037 4.909 14.726 6.76 6.792 20.915 16.66 22.58 27.49 1.96 12.742-7.643 26.35-3.927 41.233 19.806 9.156 32.212-18.155 49.088-13.745 13.16 3.44 21.12 16.2 37.307 16.69 2.27-2.215 5.849-3.45 6.872-6.872 3.489-11.673-10.82-31.955-3.927-42.215 4.208-11.576 24.907-18.688 26.507-31.417 6.356-15.09-34.833-11.153-43.197-16.69C92.93 38.219 90.51 11.6 79.522 7.634c-1.521-1.03-4.01-1.012-6.872-.982zm-24.544 55.96c4.244-.06 7.764.355 10.8.982 1.06 1.726 2.469 3.552 3.926 4.909.141 4.213.362 3.648 0 6.872h-3.927c-1.715-5.2-1.805-7.68-8.836-7.854-1.912 3.517-2.523 7.26-7.854 7.854-.619-1.722-.189-.954-.981-1.964 1.969-5.557 3.416-7.182 6.872-10.799zm61.85 12.763h-3.927c-1.714-5.2-1.805-7.68-8.835-7.854-1.003.79-.27.348-1.964.982-.748 4.356-.91 6.312-5.89 6.872-.548-1.574-.786-2.36-.982-4.909 5.08-5.652 6.907-9.242 17.671-6.872 2.363 3.883 3.878 4.982 3.927 11.781zm-50.07 18.653c4.586 2.11 12.06 6.67 19.636 4.91 3.283-.764 11.36-5.127 12.763-3.928.738 1.053.59.928.982 2.945-3.194 2.242-6.715 5.724-10.8 6.873-11.15 3.136-24.56-3.165-22.58-10.8z"/></g></g></svg>