<svg xmlns="http://www.w3.org/2000/svg" width="153" height="146" viewBox="0 0 153 146"><g><g><path d="M73.16 0c3.676.003 6.705.376 8.779 1.95C96.827 7.167 93.325 33.923 107.3 39.019c8.426 6.104 26.425.911 35.116 6.829 6.633 1.956 9.804 7.896 9.755 16.582-4.267 5.232-6.341 11.547-11.706 15.608-5.466 4.138-16.258 10.888-17.558 18.534-.296 1.741 1.62 6.457 1.95 7.803 2.884 11.757 4.247 24.6 1.952 35.117-3.765 2.524-4.744 5.232-10.73 5.853-7.698 4.585-29.842-13.464-37.068-15.608-7.05-2.091-11.937 3.934-15.607 5.853-10.664 5.576-19.37 11.947-33.166 8.78-1.748-2.752-4.495-6.432-6.828-8.78.022-10.988 7.312-33.435 4.877-40.97C23.768 80.635.241 78.486 0 55.602c2.28-2.392 3.11-6.907 5.853-8.779 7.012-4.787 31.366-5.776 40.97-7.804 5.293-9.572 10.476-24.447 16.582-33.165C65.518 2.835 70.255 2.262 73.16 0zm0 5.853C64.23 14.668 56.48 40.477 47.797 44.87 37 50.336 11.275 44.157 6.828 55.601c-1.114 1.649-1.04 4.776-.975 7.804 5.966 5.461 26.373 24.098 28.288 31.215 2.178 8.093-5.037 31.655-4.877 40.969 17.258 11.394 27.812-7.593 43.895-11.706 18.13-4.635 31.215 28.072 49.749 10.73.002-13.043-8.667-32.987-3.902-43.895 6.45-14.765 30.703-16.494 25.362-38.043-11.956-3.392-29.192-5.742-41.945-8.78-4.463-7.3-16.44-34.648-23.41-37.067-1.383-.937-3.194-.952-5.854-.975zM45.846 58.528c3.328.308 6.275 3.33 7.803 2.926v-.975c1.951-1.365 2.33-1.629 5.853-1.951.833 1.424 1.767 2.796 2.926 3.901-.615 1.711-.188.948-.975 1.951-1.15 4.942-4.935 11.143-10.73 11.706-3.815-6.93-9.564-9.824-4.877-17.558zm46.822 0c4.334.408 3.74.722 5.852 2.926 2.94-1.186 3.226-2.55 7.804-2.926.833 1.424 1.767 2.796 2.927 3.901-2.012 5.323-5.128 12.832-11.706 13.657-2.065-3.654-4.795-7.93-7.804-10.73l.976-5.853c1.71-.615.947-.188 1.95-.975zm-31.215 34.14h29.264l.975 2.927c2.21 3.297-.103 7.45-.975 10.73-3.74 2.649-14.183 10.378-22.436 4.877-7.37-2.01-11.003-11.009-6.828-18.533zm13.656 5.853l-8.779 2.927c-.522 1.478-.658 1.652-.975 3.902l2.926 1.95c4.028 3.34 12.36 1.813 16.583 0 .938-1.722 1.226-1.639 1.951-3.901h-.976c-1.993-3.991-6.342-3.454-10.73-4.878z"/></g></g></svg>